# xmcd
#
# Track frame offsets:
# 150
# 19083
# 36361
# 54121
# 70182
# 86094
# 104326
# 121374
# 136728
# 157140
# 172980
# 191568
# 205972
# 220756
# 239581
# 254882
#
# Disc length: 3629 seconds
#
#
# Revision: 0
# Processed by: cddbd v1.5.2PL0 Copyright (c) Steve Scherf et al.
# Submitted via: FreeRIP 2.944 
#
DISCID=e90e2b10
DTITLE=Eduardo Costa - Eduardo Costa - Ao Vivo
DYEAR=2007
DGENRE=Country
TTITLE0=Não Preciso de Você
TTITLE1=Me Apaixonei
TTITLE2=Linda Demais
TTITLE3=Na Saideira
TTITLE4=Passou
TTITLE5=Minha Estrela Perdida [com Alan e Alex]
TTITLE6=Olhando nos Teus Olhos
TTITLE7=A Gente se Enrosca
TTITLE8=Separação [com Leonardo]
TTITLE9=Não Acredito
TTITLE10=Amor de Violeiro
TTITLE11=Me Engana que eu Gosto
TTITLE12=Eu Quero Esse Amor
TTITLE13=Eu Sou Desejo, Você é Paixão
TTITLE14=Cena de um Filme
TTITLE15=Ilusão
EXTD=
EXTT0=
EXTT1=
EXTT2=
EXTT3=
EXTT4=
EXTT5=
EXTT6=
EXTT7=
EXTT8=
EXTT9=
EXTT10=
EXTT11=
EXTT12=
EXTT13=
EXTT14=
EXTT15=
PLAYORDER=
